<svg width="42" height="28" viewBox="0 0 42 28" fill="none" xmlns="http://www.w3.org/2000/svg">
<g id="Payment method">
<path d="M0 4C0 1.79086 1.79086 0 4 0H38C40.2091 0 42 1.79086 42 4V24C42 26.2091 40.2091 28 38 28H4C1.79086 28 0 26.2091 0 24V4Z" fill="#000008"/>
<path id="ApplePay" fill-rule="evenodd" clip-rule="evenodd" d="M12.1163 9.79841C11.7881 10.2031 11.2631 10.5222 10.738 10.4766C10.6724 9.92949 10.9294 9.34817 11.2303 8.98911C11.5584 8.57307 12.1327 8.2767 12.5976 8.25391C12.6523 8.82383 12.439 9.38236 12.1163 9.79841ZM12.592 10.5849C12.1294 10.5572 11.7073 10.7299 11.3664 10.8694C11.147 10.9591 10.9612 11.0351 10.8199 11.0351C10.6613 11.0351 10.4678 10.9551 10.2506 10.8651C9.966 10.7473 9.64061 10.6126 9.29939 10.6191C8.51728 10.6305 7.78985 11.0921 7.39059 11.8273C6.57018 13.2977 7.17728 15.4749 7.97034 16.6717C8.35866 17.2644 8.82356 17.9142 9.43613 17.8914C9.70562 17.8808 9.89948 17.795 10.1001 17.7063C10.3311 17.6042 10.571 17.4981 10.9457 17.4981C11.3073 17.4981 11.5368 17.6014 11.757 17.7006C11.9665 17.7949 12.1676 17.8855 12.4662 17.88C13.1006 17.8686 13.4999 17.2872 13.8882 16.6945C14.3073 16.0584 14.4914 15.4375 14.5194 15.3433L14.5226 15.3324C14.522 15.3317 14.5168 15.3292 14.5077 15.3249C14.3676 15.258 13.2968 14.7472 13.2866 13.3775C13.2763 12.2279 14.1358 11.6454 14.2712 11.5537C14.2794 11.5481 14.2849 11.5443 14.2875 11.5424C13.7405 10.6989 12.8873 10.6077 12.592 10.5849ZM16.9841 17.8173V8.93211H20.1837C21.8355 8.93211 22.9895 10.1176 22.9895 11.8501C22.9895 13.5827 21.8136 14.7796 20.14 14.7796H18.3077V17.8173H16.9841ZM18.3072 10.0948H19.8331C20.9817 10.0948 21.638 10.7331 21.638 11.8559C21.638 12.9786 20.9817 13.6227 19.8277 13.6227H18.3072V10.0948ZM27.3592 16.7516C27.0092 17.4469 26.238 17.8857 25.4067 17.8857C24.1761 17.8857 23.3174 17.122 23.3174 15.9708C23.3174 14.8309 24.1487 14.1755 25.6856 14.0786L27.3374 13.976V13.4859C27.3374 12.7621 26.8834 12.3688 26.0739 12.3688C25.4067 12.3688 24.9199 12.7279 24.8215 13.275H23.6291C23.6674 12.1238 24.7066 11.286 26.1122 11.286C27.6272 11.286 28.6117 12.1124 28.6117 13.3947V17.8173H27.3866V16.7516H27.3592ZM25.7624 16.8313C25.0568 16.8313 24.6083 16.4779 24.6083 15.9365C24.6083 15.378 25.0404 15.0531 25.8663 15.0018L27.3375 14.9049V15.4065C27.3375 16.2386 26.6593 16.8313 25.7624 16.8313ZM32.6754 18.1649C32.1449 19.7208 31.5378 20.2338 30.247 20.2338C30.1486 20.2338 29.8204 20.2224 29.7439 20.1996V19.1338C29.8259 19.1452 30.0283 19.1566 30.1322 19.1566C30.7174 19.1566 31.0456 18.9002 31.2479 18.2333L31.3683 17.8401L29.1258 11.3714H30.5096L32.0683 16.6204H32.0957L33.6545 11.3714H34.9999L32.6754 18.1649Z" fill="white"/>
</g>
</svg>
