<svg width="20" height="20" viewBox="0 0 20 20" fill="none" xmlns="http://www.w3.org/2000/svg">
<path d="M2.08332 10.8333C3.09776 10.4167 4.23555 10.4167 5.24999 10.8333C6.26443 11.25 7.40222 11.25 8.41666 10.8333C9.43109 10.4167 10.5689 10.4167 11.5833 10.8333C12.5978 11.25 13.7356 11.25 14.75 10.8333C15.7644 10.4167 16.9022 10.4167 17.9167 10.8333M2.49999 13.3333H17.5C17.721 13.3333 17.933 13.4211 18.0892 13.5774C18.2455 13.7337 18.3333 13.9457 18.3333 14.1667V15C18.3333 15.442 18.1577 15.866 17.8452 16.1785C17.5326 16.4911 17.1087 16.6667 16.6667 16.6667H3.33332C2.8913 16.6667 2.46737 16.4911 2.15481 16.1785C1.84225 15.866 1.66666 15.442 1.66666 15V14.1667C1.66666 13.9457 1.75445 13.7337 1.91073 13.5774C2.06701 13.4211 2.27898 13.3333 2.49999 13.3333ZM2.59259 8.33333C2.35946 8.34495 2.13122 8.26382 1.95772 8.10767C1.78422 7.95153 1.67958 7.73306 1.66666 7.5C1.66666 4.73859 5.39761 2.5 9.99999 2.5C14.6024 2.5 18.3333 4.73859 18.3333 7.5C18.3204 7.73306 18.2158 7.95152 18.0423 8.10767C17.8688 8.26382 17.6405 8.34495 17.4074 8.33333H2.59259Z" stroke="#161A1D" stroke-linecap="round" stroke-linejoin="round"/>
</svg>
