<svg width="20" height="22" viewBox="0 0 20 22" fill="none" xmlns="http://www.w3.org/2000/svg">
<g id="elements">
<path id="Icon" fill-rule="evenodd" clip-rule="evenodd" d="M8.52856 0.374337C8.97367 0.0829559 9.51698 0 10 0C10.483 0 11.0263 0.0829559 11.4714 0.374337C11.9652 0.697591 12.25 1.22083 12.25 1.875C12.25 2.42284 12.0532 2.993 11.7463 3.45184C14.9645 4.20909 17.4097 7.01398 17.5906 10.4516C17.5997 10.6241 17.6064 10.7893 17.6129 10.9485C17.6351 11.49 17.6544 11.9615 17.7525 12.4133C17.8698 12.9531 18.0867 13.3775 18.5279 13.7084C19.2972 14.2854 19.75 15.191 19.75 16.1527C19.75 17.534 18.6628 18.75 17.2 18.75H13.9298C13.5787 20.6006 11.9528 22 10 22C8.04721 22 6.42125 20.6006 6.0702 18.75H2.8C1.33719 18.75 0.25 17.534 0.25 16.1527C0.25 15.191 0.702782 14.2854 1.47213 13.7084C1.91329 13.3775 2.13025 12.9531 2.24749 12.4133C2.34561 11.9615 2.3649 11.49 2.38705 10.9485C2.39356 10.7894 2.40032 10.6241 2.4094 10.4516C2.59033 7.01397 5.03554 4.20909 8.25368 3.45184C7.94675 2.993 7.75 2.42284 7.75 1.875C7.75 1.22083 8.03476 0.697591 8.52856 0.374337ZM8.14538 18.75C8.44207 19.483 9.16066 20 10 20C10.8393 20 11.5579 19.483 11.8546 18.75H8.14538Z" fill="#B65FFC"/>
</g>
</svg>
