<svg width="45" height="44" viewBox="0 0 45 44" fill="none" xmlns="http://www.w3.org/2000/svg">
<path d="M6 36.6663L8.11933 37.726C9.137 38.2348 10.2592 38.4997 11.3969 38.4997H23.4167C24.146 38.4997 24.8455 38.2099 25.3612 37.6942C25.8769 37.1785 26.1667 36.479 26.1667 35.7497C26.1667 35.0203 25.8769 34.3209 25.3612 33.8051C24.8455 33.2894 24.146 32.9997 23.4167 32.9997H16.0833M6 23.833H11.3411C12.1345 23.833 12.9065 24.0903 13.5411 24.5663L17.6428 27.6426C17.9839 27.8984 18.2661 28.2246 18.4702 28.599C18.6743 28.9733 18.7956 29.3872 18.8258 29.8125C18.856 30.2379 18.7945 30.6647 18.6454 31.0642C18.4963 31.4637 18.2631 31.8265 17.9616 32.128C17.455 32.6345 16.7827 32.9414 16.0681 32.9922C15.3535 33.043 14.6446 32.8343 14.0714 32.4044L11.5 30.4758M31.6667 34.833H33.0417C33.5834 34.833 34.1198 34.7263 34.6202 34.519C35.1207 34.3117 35.5754 34.0079 35.9585 33.6248C36.3415 33.2418 36.6454 32.787 36.8527 32.2866C37.06 31.7861 37.1667 31.2497 37.1667 30.708V11.458C37.1667 10.9163 37.06 10.3799 36.8527 9.87944C36.6454 9.37897 36.3415 8.92423 35.9585 8.54119C35.5754 8.15815 35.1207 7.85431 34.6202 7.647C34.1198 7.4397 33.5834 7.33301 33.0417 7.33301H11.9583C10.8643 7.33301 9.81511 7.76761 9.04152 8.54119C8.26793 9.31478 7.83333 10.364 7.83333 11.458V18.333M27.0833 7.33301V15.583C27.0833 15.8261 26.9868 16.0593 26.8148 16.2312C26.6429 16.4031 26.4098 16.4997 26.1667 16.4997H18.8333C18.5902 16.4997 18.3571 16.4031 18.1852 16.2312C18.0132 16.0593 17.9167 15.8261 17.9167 15.583V7.33301" stroke="#5856D7" stroke-width="2" stroke-linecap="round" stroke-linejoin="round"/>
</svg>
