<svg width="72" height="72" viewBox="0 0 72 72" fill="none" xmlns="http://www.w3.org/2000/svg">
<path d="M25.5002 9L15.0002 27M46.5002 9L57.0002 27M28.5002 43.5L34.5002 49.5L45.0002 39M58.4985 27H13.502C12.6231 27 11.755 27.1931 10.959 27.5655C10.163 27.938 9.45856 28.4808 8.89544 29.1555C8.33233 29.8302 7.92432 30.6204 7.70025 31.4702C7.47618 32.32 7.44152 33.2087 7.59873 34.0733L11.9624 58.0733C12.2137 59.4558 12.9423 60.7062 14.0211 61.6065C15.0999 62.5068 16.4604 63 17.8656 63H54.1349C55.54 63 56.9005 62.5068 57.9793 61.6065C59.0581 60.7062 59.7867 59.4558 60.0381 58.0733L64.4017 34.0733C64.5589 33.2087 64.5242 32.32 64.3002 31.4702C64.0761 30.6204 63.6681 29.8302 63.105 29.1555C62.5419 28.4808 61.8374 27.938 61.0414 27.5655C60.2454 27.1931 59.3773 27 58.4985 27Z" stroke="#161A1D" stroke-width="4.5" stroke-linecap="round" stroke-linejoin="round"/>
</svg>
