<svg width="44" height="44" viewBox="0 0 44 44" fill="none" xmlns="http://www.w3.org/2000/svg">
<path d="M18.3336 33.0003H25.6669M14.6669 9.55324V8.55591C14.6669 7.91389 14.7934 7.27815 15.0391 6.685C15.2848 6.09186 15.6449 5.55291 16.0988 5.09893C16.5528 4.64495 17.0918 4.28484 17.6849 4.03914C18.2781 3.79345 18.9138 3.66699 19.5558 3.66699H24.4447C25.7413 3.667 26.9848 4.18208 27.9017 5.09892C28.8185 6.01576 29.3336 7.25926 29.3336 8.55587V9.5532M17.3062 9.16699H26.6943C29.0265 9.16699 31.271 10.0559 32.9707 11.6527C34.6705 13.2496 35.6976 15.4342 35.8431 17.7619L36.6524 30.7096C36.7148 31.7092 36.5719 32.711 36.2323 33.6532C35.8928 34.5954 35.3638 35.4581 34.678 36.1881C33.9923 36.9181 33.1643 37.4998 32.245 37.8975C31.3258 38.2952 30.3349 38.5003 29.3333 38.5003H14.6672C13.6657 38.5003 12.6747 38.2951 11.7555 37.8975C10.8363 37.4998 10.0083 36.918 9.32256 36.1881C8.6368 35.4581 8.10784 34.5954 7.76829 33.6532C7.42874 32.711 7.28579 31.7092 7.34827 30.7096L8.1575 17.7619C8.30297 15.4343 9.33016 13.2496 11.0299 11.6528C12.7296 10.0559 14.9741 9.16702 17.3062 9.16699ZM35.979 19.9383C36.0102 20.4381 35.9388 20.939 35.769 21.4101C35.5992 21.8812 35.3347 22.3126 34.9919 22.6775C34.649 23.0425 34.235 23.3334 33.7754 23.5322C33.3157 23.7311 32.8203 23.8337 32.3195 23.8337H11.681C11.1803 23.8337 10.6848 23.7311 10.2252 23.5322C9.76557 23.3334 9.35156 23.0425 9.00867 22.6775C8.66579 22.3126 8.40131 21.8812 8.23153 21.4101C8.06175 20.939 7.99028 20.4381 8.02152 19.9383C8.04868 19.5037 8.24045 19.0959 8.55778 18.7977C8.87511 18.4996 9.29414 18.3337 9.72955 18.3337H34.271C34.7064 18.3337 35.1254 18.4996 35.4427 18.7977C35.7601 19.0959 35.9518 19.5037 35.979 19.9383Z" stroke="#161A1D" stroke-width="2.5" stroke-linecap="round" stroke-linejoin="round"/>
</svg>
