<svg width="72" height="72" viewBox="0 0 72 72" fill="none" xmlns="http://www.w3.org/2000/svg">
<path d="M48 10.5L33 28.5M60 16.5L45 28.5M48 54.987V59.25C48 61.32 46.32 63 44.25 63H21.75C19.68 63 18 61.32 18 59.25V54.987M33 15C30.999 13.344 30.999 10.656 33 9M21 15C23.001 16.656 23.001 19.344 21 21M45 55.5H21C16.029 55.5 12 51.471 12 46.5V31.5C12 29.844 13.344 28.5 15 28.5H51C52.656 28.5 54 29.844 54 31.5V46.5C54 51.471 49.971 55.5 45 55.5Z" stroke="#161A1D" stroke-width="4.5" stroke-linecap="round" stroke-linejoin="round"/>
</svg>
