<svg width="24" height="24" viewBox="0 0 24 24" fill="none" xmlns="http://www.w3.org/2000/svg">
<path d="M3 20L4.156 20.578C4.71109 20.8555 5.32318 21 5.94378 21H12.5C12.8978 21 13.2794 20.842 13.5607 20.5607C13.842 20.2794 14 19.8978 14 19.5C14 19.1022 13.842 18.7206 13.5607 18.4393C13.2794 18.158 12.8978 18 12.5 18H8.5M3 13H5.91335C6.34609 13 6.76716 13.1404 7.11335 13.4L9.35062 15.0779C9.53669 15.2175 9.69059 15.3954 9.80192 15.5996C9.91325 15.8038 9.9794 16.0296 9.99588 16.2616C10.0124 16.4936 9.97882 16.7264 9.89749 16.9443C9.81616 17.1622 9.68896 17.3601 9.5245 17.5245C9.24819 17.8008 8.88147 17.9682 8.49169 17.9959C8.10191 18.0236 7.71521 17.9098 7.4026 17.6753L6 16.6234M17 19H17.75C18.0455 19 18.3381 18.9418 18.611 18.8287C18.884 18.7157 19.1321 18.5499 19.341 18.341C19.5499 18.1321 19.7157 17.884 19.8287 17.611C19.9418 17.3381 20 17.0455 20 16.75V6.25C20 5.95453 19.9418 5.66194 19.8287 5.38896C19.7157 5.11598 19.5499 4.86794 19.341 4.65901C19.1321 4.45008 18.884 4.28434 18.611 4.17127C18.3381 4.0582 18.0455 4 17.75 4H6.25C5.65326 4 5.08097 4.23705 4.65901 4.65901C4.23705 5.08097 4 5.65326 4 6.25V10M14.5 4V8.5C14.5 8.63261 14.4473 8.75979 14.3536 8.85355C14.2598 8.94732 14.1326 9 14 9H10C9.86739 9 9.74021 8.94732 9.64645 8.85355C9.55268 8.75979 9.5 8.63261 9.5 8.5V4" stroke="#21262C" stroke-width="1.5" stroke-linecap="round" stroke-linejoin="round"/>
</svg>
