<svg width="44" height="44" viewBox="0 0 44 44" fill="none" xmlns="http://www.w3.org/2000/svg">
<path d="M22.0007 18.3332V14.4967L24.535 13.0887C25.156 12.7438 25.6735 12.239 26.0338 11.6267C26.3941 11.0144 26.584 10.317 26.584 9.60654C26.5121 8.45078 25.986 7.37038 25.1205 6.60104C24.255 5.8317 23.1204 5.43586 21.9641 5.49988C20.9217 5.45662 19.8969 5.77879 19.0667 6.41075C18.2366 7.04271 17.6532 7.94476 17.4174 8.96108M22.0007 18.3332C22.9623 18.3332 23.9034 18.6109 24.711 19.1329L37.0281 27.1015C37.6104 27.4779 38.055 28.033 38.2951 28.6834C38.5353 29.3338 38.5581 30.0445 38.3602 30.709C38.1623 31.3735 37.7543 31.956 37.1975 32.369C36.6406 32.782 35.9648 33.0034 35.2714 32.9999H33.0007M22.0007 18.3332C21.0391 18.3332 20.098 18.6109 19.2904 19.1329L6.97329 27.1015C6.39102 27.4779 5.94647 28.033 5.7063 28.6834C5.46613 29.3338 5.44329 30.0445 5.64119 30.709C5.8391 31.3735 6.24709 31.956 6.80398 32.369C7.36087 32.782 8.03665 33.0034 8.72999 32.9999H11.0007M12.8341 30.2499H31.1674C31.6536 30.2499 32.1199 30.443 32.4637 30.7868C32.8076 31.1307 33.0007 31.597 33.0007 32.0832V38.4999H11.0007V32.0832C11.0007 31.597 11.1939 31.1307 11.5377 30.7868C11.8815 30.443 12.3478 30.2499 12.8341 30.2499Z" stroke="#161A1D" stroke-width="2.4" stroke-linecap="round" stroke-linejoin="round"/>
</svg>
