<svg width="20" height="18" viewBox="0 0 20 18" fill="none" xmlns="http://www.w3.org/2000/svg">
<path d="M19 12.5V16C19 16.2652 18.8946 16.5196 18.7071 16.7071C18.5196 16.8946 18.2652 17 18 17H16C15.7348 17 15.4804 16.8946 15.2929 16.7071C15.1054 16.5196 15 16.2652 15 16V14.5M19 12.5V9.74309C19 8.94715 18.6838 8.18381 18.121 7.621L17 6.5M19 12.5C19 13.0304 18.7893 13.5391 18.4142 13.9142C18.0391 14.2893 17.5304 14.5 17 14.5H3C2.46957 14.5 1.96086 14.2893 1.58579 13.9142C1.21071 13.5391 1 13.0304 1 12.5M5 14.5V16C5 16.2652 4.89464 16.5196 4.70711 16.7071C4.51957 16.8946 4.26522 17 4 17H2C1.73478 17 1.48043 16.8946 1.29289 16.7071C1.10536 16.5196 1 16.2652 1 16V12.5M1 12.5V9.74543C1 8.9491 1.31616 8.18534 1.879 7.622L3 6.5M3 6.5H17M3 6.5V5.994L3.836 2.857C3.97792 2.32444 4.29178 1.85367 4.72881 1.51785C5.16584 1.18204 5.70155 0.999992 6.2527 1H13.8353C14.3975 0.999999 14.9433 1.18949 15.3845 1.53786C15.8257 1.88624 16.1366 2.37316 16.267 2.92L17 5.994V6.5M19 5.5L17 6M3 6L1 5.5M4 10.5H6M14 10.5H16" stroke="white" stroke-width="1.5" stroke-linecap="round" stroke-linejoin="round"/>
</svg>
