<svg width="21" height="20" viewBox="0 0 21 20" fill="none" xmlns="http://www.w3.org/2000/svg">
<path d="M14 14.6875V16.875C14 17.0408 13.9317 17.1997 13.8101 17.3169C13.6886 17.4342 13.5237 17.5 13.3518 17.5H12.0555C11.8836 17.5 11.7188 17.4342 11.5972 17.3169C11.4757 17.1997 11.4074 17.0408 11.4074 16.875V15.9375M14 14.6875V12.9644C14 12.467 13.795 11.9899 13.4303 11.6381L12.7037 10.9375M14 14.6875C14 15.019 13.8634 15.337 13.6203 15.5714C13.3772 15.8058 13.0475 15.9375 12.7037 15.9375H3.62961C3.28581 15.9375 2.95609 15.8058 2.71299 15.5714C2.46989 15.337 2.33331 15.019 2.33331 14.6875M4.92591 15.9375V16.875C4.92591 17.0408 4.85762 17.1997 4.73607 17.3169C4.61452 17.4342 4.44966 17.5 4.27776 17.5H2.98146C2.80956 17.5 2.6447 17.4342 2.52315 17.3169C2.4016 17.1997 2.33331 17.0408 2.33331 16.875V14.6875M2.33331 14.6875V12.9659C2.33331 12.4682 2.53823 11.9908 2.90304 11.6387L3.62961 10.9375M3.62961 10.9375H12.7037M3.62961 10.9375V10.6213L4.17146 8.66062C4.26345 8.32777 4.46687 8.03354 4.75013 7.82366C5.03339 7.61378 5.38062 7.49999 5.73784 7.5H10.6525C11.0169 7.5 11.3706 7.61843 11.6566 7.83616C11.9426 8.0539 12.1441 8.35823 12.2286 8.7L12.7037 10.6213V10.9375M14 10.3125L12.7037 10.625M3.62961 10.625L2.33331 10.3125M4.27776 13.4375H5.57405M10.7592 13.4375H12.0555M10.25 2.5H16.5M16.5 2.5H19V17.5H16.5V2.5ZM8.79165 3.75H11.7083C12.0535 3.75 12.3333 3.47018 12.3333 3.125C12.3333 2.77982 12.0535 2.5 11.7083 2.5H8.79165C8.44647 2.5 8.16665 2.77982 8.16665 3.125C8.16665 3.47018 8.44647 3.75 8.79165 3.75Z" stroke="#161A1D" stroke-linecap="round" stroke-linejoin="round"/>
</svg>
