<svg width="24" height="24" viewBox="0 0 24 24" fill="none" xmlns="http://www.w3.org/2000/svg">
<path d="M21 7H3M8.5 10.5C8.5 11.4283 8.86875 12.3185 9.52513 12.9749C10.1815 13.6313 11.0717 14 12 14C12.9283 14 13.8185 13.6313 14.4749 12.9749C15.1313 12.3185 15.5 11.4283 15.5 10.5M21 6.32456V19C21 19.5304 20.7893 20.0391 20.4142 20.4142C20.0391 20.7893 19.5304 21 19 21H5C4.46957 21 3.96086 20.7893 3.58579 20.4142C3.21071 20.0391 3 19.5304 3 19V6.32456C3 6.10959 3.03466 5.89604 3.10263 5.6921L3.54415 4.36754C3.67689 3.96932 3.93157 3.62295 4.2721 3.37751C4.61263 3.13207 5.02176 3 5.44152 3H18.5585C18.9783 3 19.3874 3.13207 19.7279 3.37751C20.0685 3.62295 20.3231 3.96932 20.4559 4.36754L20.8974 5.6921C20.9654 5.89604 21 6.1096 21 6.32456Z" stroke="#161A1D" stroke-width="1.5" stroke-linecap="round" stroke-linejoin="round"/>
</svg>
