<svg width="24" height="24" viewBox="0 0 24 24" fill="none" xmlns="http://www.w3.org/2000/svg">
<g id="courier-hands-package-box 1">
<path id="Vector" d="M10 12L6.146 17.803M10 12L16.4248 13.672C16.7327 13.7521 17.0053 13.9322 17.1999 14.1839C17.3945 14.4356 17.5 14.7447 17.5 15.0629C17.5 15.444 17.3486 15.8096 17.0791 16.0791C16.8096 16.3486 16.444 16.5 16.0629 16.5H14V17.5L16.2986 20.086C16.4459 20.2517 16.5421 20.4564 16.5758 20.6756C16.6094 20.8947 16.579 21.1189 16.4881 21.3211C16.3973 21.5233 16.25 21.695 16.0639 21.8155C15.8777 21.9359 15.6608 22 15.4391 22H12.1504C11.4343 22 10.7418 21.7438 10.198 21.2777L3 15.108V19.2758C2.99999 19.5022 3.04459 19.7264 3.13124 19.9356C3.21788 20.1448 3.34489 20.3349 3.505 20.495C3.6651 20.6551 3.85518 20.7821 4.06437 20.8688C4.27357 20.9554 4.49778 21 4.72421 21H9.874M10 12L3 6V5C3 4.46957 3.21071 3.96086 3.58579 3.58579C3.96086 3.21071 4.46957 3 5 3H19C19.5304 3 20.0391 3.21071 20.4142 3.58579C20.7893 3.96086 21 4.46957 21 5V19C21 19.5304 20.7893 20.0391 20.4142 20.4142C20.0391 20.7893 19.5304 21 19 21H16.5913M9 3H15V5C15 5.26522 14.8946 5.51957 14.7071 5.70711C14.5196 5.89464 14.2652 6 14 6H10C9.73478 6 9.48043 5.89464 9.29289 5.70711C9.10536 5.51957 9 5.26522 9 5V3Z" stroke="#21262C" stroke-width="1.5" stroke-linecap="round" stroke-linejoin="round"/>
</g>
</svg>
