<svg width="45" height="44" viewBox="0 0 45 44" fill="none" xmlns="http://www.w3.org/2000/svg">
<path d="M30.7317 23.5765V17.2258L14.25 7.71081M17.0733 31.1665L11.5 27.9398M22.5 21.9998V40.4798M22.5 21.9998L6.49133 12.758M22.5 21.9998L38.5087 12.758M6 29.4083V14.5913C6 13.2805 6.6985 12.0705 7.83333 11.416L20.6667 4.00748C21.8015 3.35298 23.1985 3.35298 24.3333 4.00748L37.1667 11.416C38.3015 12.0705 39 13.2823 39 14.5913V29.4101C39 30.721 38.3015 31.931 37.1667 32.5855L24.3333 39.994C23.1985 40.6485 21.8015 40.6485 20.6667 39.994L7.83333 32.5855C6.6985 31.9291 6 30.7191 6 29.4083Z" stroke="#5856D7" stroke-width="2" stroke-linecap="round" stroke-linejoin="round"/>
</svg>
