<svg width="20" height="20" viewBox="0 0 20 20" fill="none" xmlns="http://www.w3.org/2000/svg">
<path d="M9.16667 15.0001L11.5125 2.34848C11.5975 1.89181 12.0392 1.59181 12.495 1.68348L15.8333 2.35098M14.8417 10.5335C13.5042 11.8176 11.3367 11.8176 10 10.5343C8.66333 9.25098 6.49583 9.25098 5.15833 10.5351M5.15333 10.4968C5.05083 9.44681 5 8.39265 5 7.33765V7.18181C5 6.84348 5.07917 6.50931 5.23 6.20598C5.6 5.46681 6.355 5.00015 7.18167 5.00015H12.8183C13.645 5.00015 14.4 5.46681 14.77 6.20598C14.9208 6.50931 15 6.84348 15 7.18181V7.33765C15 8.39265 14.9492 9.44598 14.8467 10.496L14.3125 15.9943C14.23 16.8485 13.5125 17.5001 12.6542 17.5001H7.34583C6.4875 17.5001 5.77 16.8485 5.68667 15.9943L5.15333 10.4968Z" stroke="white" stroke-linecap="round" stroke-linejoin="round"/>
</svg>
