<svg width="24" height="24" viewBox="0 0 24 24" fill="none" xmlns="http://www.w3.org/2000/svg">
<g id="eye-hidden 1">
<path id="Vector" d="M9.49624 18.505C10.3152 18.822 11.1582 19 12.0002 19C15.4952 19 18.9902 15.967 20.8822 12.468C21.0392 12.177 21.0392 11.824 20.8822 11.533C20.3842 10.612 19.7702 9.73 19.0792 8.921M5.00024 19L19.0002 5M9.77324 14.227C8.54324 12.997 8.54324 11.002 9.77324 9.772C11.0032 8.542 12.9982 8.542 14.2282 9.772M17.0442 6.956C15.4972 5.759 13.7482 5 12.0002 5C8.50524 5 5.01024 8.033 3.11824 11.533C2.96124 11.824 2.96124 12.177 3.11824 12.468C4.06424 14.217 5.41024 15.849 6.95624 17.045" stroke="#161A1D" stroke-width="1.5" stroke-linecap="round" stroke-linejoin="round"/>
</g>
</svg>
