<svg width="24" height="24" viewBox="0 0 24 24" fill="none" xmlns="http://www.w3.org/2000/svg">
<g id="eye-show-visible 1">
<path id="Vector" d="M11.9998 2.5V5M4.99977 4.5L6.67977 6.5M18.9998 4.5L17.3198 6.5M3.13477 14.998C2.95377 14.693 2.95377 14.307 3.13477 14.002C5.03977 10.779 8.51977 8 11.9998 8C15.4798 8 18.9588 10.779 20.8638 14.001C21.0448 14.307 21.0448 14.694 20.8638 15C18.9588 18.221 15.4798 21 11.9998 21C8.51977 21 5.03977 18.221 3.13477 14.998ZM14.1208 12.379C15.2928 13.551 15.2928 15.45 14.1208 16.622C12.9488 17.794 11.0498 17.794 9.87777 16.622C8.70577 15.45 8.70577 13.551 9.87777 12.379C11.0498 11.207 12.9498 11.207 14.1208 12.379Z" stroke="#161A1D" stroke-width="1.5" stroke-linecap="round" stroke-linejoin="round"/>
</g>
</svg>
