<svg width="42" height="28" viewBox="0 0 42 28" fill="none" xmlns="http://www.w3.org/2000/svg">
<g id="Payment method">
<path d="M0 4C0 1.79086 1.79086 0 4 0H38C40.2091 0 42 1.79086 42 4V24C42 26.2091 40.2091 28 38 28H4C1.79086 28 0 26.2091 0 24V4Z" fill="#00A850"/>
<g id="Vector">
<path d="M7.00345 15.8821V13.0986C6.9894 12.9002 7.0184 12.7011 7.08855 12.5149C7.15865 12.3288 7.26825 12.1601 7.4097 12.0203C7.78235 11.7573 8.2362 11.6352 8.69045 11.6758H10.7906V12.5095H8.3427C8.23705 12.514 8.13515 12.55 8.0501 12.6128C7.99105 12.6578 7.94175 12.7143 7.90505 12.7788C7.86835 12.8433 7.8451 12.9146 7.8366 12.9884V14.1149H10.7768V14.9485H7.8366V16.0784C7.84605 16.1608 7.8718 16.2404 7.91235 16.3127C7.93445 16.3638 7.96655 16.4099 8.0068 16.4484C8.047 16.4868 8.0945 16.5168 8.14645 16.5366C8.3445 16.5924 8.5505 16.6145 8.75585 16.6021H10.7596V17.4323H8.53205C8.32805 17.4444 8.1237 17.4155 7.93095 17.3474C7.73825 17.2794 7.56105 17.1736 7.4097 17.0362C7.2678 16.8811 7.15865 16.6989 7.08885 16.5006C7.019 16.3023 6.99 16.0919 7.00345 15.8821Z" fill="white"/>
<path d="M11.1001 11.6695H11.9884L13.6478 16.3029L15.3279 11.673H16.2127L14.2675 17.0126C14.2237 17.1561 14.1429 17.2856 14.0334 17.3881C13.9217 17.4661 13.7873 17.5049 13.6513 17.4983C13.5166 17.5062 13.3833 17.4685 13.2725 17.3916C13.1605 17.2897 13.0793 17.1584 13.0384 17.0126L11.1001 11.6695Z" fill="white"/>
<path d="M16.6328 13.0989C16.6228 12.9099 16.6512 12.7209 16.7163 12.5433C16.7814 12.3657 16.8819 12.2031 17.0116 12.0654C17.1347 11.9401 17.2823 11.8415 17.4452 11.7757C17.6081 11.7099 17.7828 11.6784 17.9583 11.683H20.3683V12.5167H18.0823C18.0012 12.5037 17.9183 12.5094 17.8398 12.5335C17.7613 12.5576 17.6894 12.5993 17.6295 12.6555C17.5697 12.7118 17.5235 12.781 17.4946 12.8578C17.4656 12.9347 17.4547 13.0171 17.4626 13.0989V16.0891C17.4799 16.2322 17.5512 16.3633 17.6619 16.4555C17.7726 16.5477 17.9144 16.5941 18.0582 16.5852H20.3649V17.4154H17.886C17.6135 17.406 17.3504 17.3135 17.1321 17.1502C16.9927 17.0469 16.8764 16.9158 16.7905 16.7652C16.7045 16.6145 16.6509 16.4476 16.6328 16.2751V13.0989Z" fill="white"/>
<path d="M22.9332 17.426V11.6695H25.4292C26.5103 11.6695 27.0508 12.1288 27.0508 13.0475V13.8708C27.0619 14.0658 27.0314 14.261 26.9613 14.4434C26.8913 14.6257 26.7833 14.791 26.6445 14.9284C26.3345 15.2027 25.9284 15.3426 25.5153 15.3177H23.7663V17.426H22.9332ZM23.7663 14.4771H25.5084C25.6864 14.4933 25.8649 14.4523 26.018 14.36C26.136 14.2458 26.2051 14.0902 26.2107 13.926V12.9889C26.2053 12.8611 26.1554 12.7392 26.0696 12.6444C25.9472 12.5613 25.8042 12.5135 25.6565 12.5067H23.7663V14.4771Z" fill="white"/>
<path d="M27.7707 14.0946V11.6832H28.2355V14.0946C28.2301 14.143 28.2349 14.1919 28.2498 14.2382C28.2646 14.2845 28.2891 14.3272 28.3216 14.3634C28.4042 14.4263 28.5074 14.4558 28.6108 14.446H29.8364V14.9111H28.4868C28.3839 14.9115 28.2821 14.8899 28.1883 14.8476C28.0945 14.8053 28.0108 14.7434 27.943 14.666C27.8751 14.5886 27.8246 14.4976 27.7949 14.399C27.7652 14.3005 27.7569 14.1967 27.7707 14.0946Z" fill="white"/>
<path d="M30.1329 14.1085V11.6694H30.5977V14.0499C30.5881 14.1554 30.6175 14.2608 30.6803 14.3462C30.7166 14.3798 30.7596 14.4051 30.8065 14.4206C30.8535 14.436 30.9032 14.4412 30.9523 14.4357H31.6133C31.7102 14.4447 31.8068 14.415 31.8818 14.353C31.9426 14.2748 31.971 14.1761 31.961 14.0774V11.666H32.4327V14.105C32.4369 14.2639 32.3951 14.4207 32.3122 14.5563C32.2521 14.6636 32.1609 14.7501 32.0505 14.8043C31.9834 14.8341 31.9144 14.8594 31.844 14.8801C31.7913 14.8858 31.7382 14.8858 31.6856 14.8801H30.8938C30.7398 14.864 30.5897 14.8221 30.4496 14.7561C30.2465 14.6907 30.1329 14.4771 30.1329 14.1085Z" fill="white"/>
<path d="M32.9171 14.9008V14.4357H34.2632C34.333 14.4331 34.399 14.4037 34.4477 14.3537C34.4964 14.3037 34.524 14.2369 34.5249 14.167V13.7536C34.5266 13.7097 34.5146 13.6663 34.4904 13.6296C34.4713 13.5891 34.4415 13.5546 34.4044 13.5297C34.3505 13.5077 34.2936 13.4938 34.2357 13.4884H33.554C33.3778 13.4673 33.214 13.3871 33.0892 13.261C32.9787 13.1477 32.917 12.9956 32.9171 12.8373V12.4273C32.9171 12.0828 32.9963 11.883 33.1512 11.8072C33.2518 11.7567 33.3566 11.7152 33.4645 11.6832C33.5401 11.6783 33.616 11.6783 33.6917 11.6832H35V12.1517H33.6228C33.5613 12.1555 33.5018 12.1757 33.4507 12.2103C33.4136 12.2514 33.3907 12.3033 33.3853 12.3584V12.7994C33.3851 12.838 33.393 12.8762 33.4086 12.9116C33.4241 12.947 33.4469 12.9787 33.4754 13.0047C33.504 13.0306 33.5377 13.0504 33.5744 13.0625C33.611 13.0746 33.6498 13.0788 33.6883 13.075H34.2632C34.433 13.081 34.5982 13.1321 34.7418 13.2231C34.8244 13.2697 34.8922 13.3388 34.9373 13.4222C34.9824 13.5058 35.0029 13.6003 34.9965 13.6951V14.2049C35.0049 14.3084 34.9868 14.4123 34.9441 14.5069C34.9013 14.6015 34.8353 14.6837 34.7521 14.7458C34.6114 14.8506 34.442 14.9095 34.2667 14.9146L32.9171 14.9008Z" fill="white"/>
<path d="M25.4432 17.3843C25.3479 17.3868 25.2528 17.3752 25.1609 17.3499C25.086 17.3296 25.0134 17.3019 24.944 17.2672V17.0123C25.0097 17.0756 25.0868 17.1259 25.1712 17.1604C25.2485 17.1936 25.3316 17.2112 25.4157 17.2121C25.5054 17.2186 25.5944 17.1929 25.667 17.1398C25.695 17.1186 25.7175 17.0909 25.7325 17.0591C25.7475 17.0273 25.7546 16.9923 25.753 16.9572C25.7562 16.9041 25.7403 16.8515 25.7083 16.809C25.6718 16.7658 25.6223 16.7356 25.5671 16.7229L25.4363 16.6885L25.2917 16.654C25.2431 16.6415 25.1958 16.6242 25.1506 16.6023C25.109 16.5819 25.0716 16.5538 25.0404 16.5196C25.0083 16.4848 24.9836 16.4438 24.9681 16.3991C24.9495 16.3495 24.9401 16.297 24.9405 16.244C24.9397 16.1848 24.9523 16.1262 24.9773 16.0724C25.0024 16.0188 25.0392 15.9714 25.0851 15.934C25.188 15.8474 25.3192 15.802 25.4535 15.8065C25.5346 15.8068 25.6155 15.8161 25.6945 15.8341C25.767 15.8504 25.8374 15.8747 25.9045 15.9065V16.1476C25.8499 16.0989 25.7869 16.0603 25.7186 16.0339C25.6441 15.9998 25.5631 15.9821 25.4811 15.9823C25.3992 15.9792 25.3185 16.0021 25.2504 16.0477C25.2028 16.0868 25.1725 16.143 25.1661 16.2043C25.1596 16.2655 25.1776 16.3269 25.216 16.375C25.2558 16.4176 25.3073 16.4476 25.364 16.4611L25.5224 16.499L25.6773 16.5403C25.7669 16.5623 25.8467 16.6131 25.9045 16.685C25.9539 16.7542 25.9793 16.8377 25.9768 16.9227C25.9774 16.9841 25.9657 17.045 25.9424 17.1018C25.9194 17.1573 25.8841 17.2068 25.8391 17.2465C25.7911 17.2912 25.735 17.3262 25.6739 17.3499C25.5997 17.3754 25.5215 17.3871 25.4432 17.3843Z" fill="white"/>
<path d="M26.1832 17.3569V15.8342H27.1334V16.0168H26.3863V16.4336H27.0749V16.6128H26.3863V17.1777H27.1334V17.3569H26.1832Z" fill="white"/>
<path d="M28.5349 17.3569H28.2733L27.7913 16.7541H27.5606V17.3569H27.3575V15.8343H27.75C27.8238 15.8337 27.8975 15.8395 27.9703 15.8515C28.0305 15.8606 28.088 15.8829 28.1386 15.9169C28.1892 15.9508 28.2317 15.9956 28.263 16.0478C28.2962 16.1091 28.3128 16.178 28.3112 16.2476C28.3139 16.3486 28.2837 16.4478 28.2251 16.5301C28.1658 16.6064 28.0857 16.6638 27.9944 16.6955L28.5349 17.3569ZM28.0977 16.2649C28.0991 16.2245 28.0908 16.1843 28.0736 16.1477C28.0596 16.1119 28.0342 16.0816 28.0013 16.0616C27.9702 16.0431 27.9365 16.0292 27.9015 16.0203C27.8545 16.0162 27.8073 16.0162 27.7603 16.0203H27.5606V16.5956H27.7397C27.7911 16.601 27.8431 16.601 27.8946 16.5956C27.9386 16.5863 27.9792 16.5648 28.0116 16.5336C28.0423 16.5056 28.0649 16.4699 28.077 16.4302C28.0951 16.3771 28.1021 16.3208 28.0977 16.2649Z" fill="white"/>
<path d="M29.7572 15.8342L29.2339 17.3569H29.017L28.4937 15.8342H28.7106L29.1306 17.0985L29.5507 15.8342H29.7572Z" fill="white"/>
<path d="M30.435 17.3569H29.8463V17.2019H30.0391V15.9927H29.8463V15.8342H30.435V15.9927H30.2422V17.2019H30.435V17.3569Z" fill="white"/>
<path d="M31.2792 17.3848C31.1863 17.3854 31.0942 17.369 31.0072 17.3365C30.9234 17.3049 30.8488 17.2528 30.7903 17.185C30.7269 17.1141 30.6788 17.0307 30.6491 16.9404C30.6126 16.8293 30.5951 16.7128 30.5975 16.5959C30.595 16.4792 30.6112 16.3629 30.6457 16.2514C30.6774 16.1601 30.7265 16.0759 30.7903 16.0033C30.8491 15.9364 30.922 15.8835 31.0038 15.8483C31.0921 15.8116 31.1869 15.7928 31.2826 15.7932C31.3308 15.7894 31.3791 15.7894 31.4272 15.7932L31.5512 15.8208L31.651 15.8586C31.6854 15.8586 31.7199 15.8897 31.7543 15.9103V16.1997L31.6854 16.1411C31.6541 16.1139 31.6194 16.0907 31.5821 16.0722C31.5427 16.0509 31.5012 16.0336 31.4582 16.0206C31.4067 16.0063 31.3533 15.9993 31.2998 15.9999C31.2358 15.9984 31.1723 16.0114 31.1139 16.0378C31.0556 16.0655 31.004 16.1055 30.9624 16.1549C30.9157 16.2126 30.8817 16.2795 30.8626 16.3513C30.8368 16.4373 30.824 16.5267 30.8247 16.6166C30.8235 16.7075 30.8363 16.7982 30.8626 16.8853C30.8864 16.9537 30.9213 17.0177 30.9659 17.0747C31.0065 17.1242 31.0585 17.1632 31.1174 17.1884C31.1742 17.2162 31.2366 17.2304 31.2998 17.2297C31.3546 17.229 31.409 17.2208 31.4617 17.2056C31.507 17.1932 31.5509 17.1759 31.5925 17.1539C31.626 17.1342 31.6582 17.1123 31.6889 17.0885C31.712 17.0706 31.7339 17.051 31.7543 17.0299V17.2711L31.6579 17.3159C31.6241 17.3347 31.5883 17.3497 31.5512 17.3606L31.4272 17.3917C31.3778 17.3937 31.3282 17.3914 31.2792 17.3848Z" fill="white"/>
<path d="M31.9434 17.3569V15.8342H32.8868V16.0168H32.1431V16.4336H32.8317V16.6128H32.1431V17.1777H32.8868V17.3569H31.9434Z" fill="white"/>
</g>
</g>
</svg>
