<svg width="72" height="72" viewBox="0 0 72 72" fill="none" xmlns="http://www.w3.org/2000/svg">
<path d="M21 27V15C21 13.4087 21.6321 11.8826 22.7574 10.7574C23.8826 9.63214 25.4087 9 27 9H57C58.5913 9 60.1174 9.63214 61.2426 10.7574C62.3679 11.8826 63 13.4087 63 15V57C63 58.5913 62.3679 60.1174 61.2426 61.2426C60.1174 62.3679 58.5913 63 57 63H45M54 36H48M15 39H30C33.3137 39 36 41.6863 36 45V57C36 60.3137 33.3137 63 30 63H15C11.6863 63 9 60.3137 9 57V45C9 41.6863 11.6863 39 15 39ZM18 39H27V46.5C27 46.8978 26.842 47.2794 26.5607 47.5607C26.2794 47.842 25.8978 48 25.5 48H19.5C19.1022 48 18.7206 47.842 18.4393 47.5607C18.158 47.2794 18 46.8978 18 46.5V39Z" stroke="#161A1D" stroke-width="4.5" stroke-linecap="round" stroke-linejoin="round"/>
</svg>
