<svg width="20" height="20" viewBox="0 0 20 20" fill="none" xmlns="http://www.w3.org/2000/svg">
<path d="M13.3333 9.74359H8.84615C7.35923 9.74359 6.15385 10.949 6.15385 12.4359C6.15385 13.9228 7.35923 15.1282 8.84615 15.1282H10.7692C12.1853 15.1282 13.3333 13.9802 13.3333 12.5641V7.4359C13.3333 6.01978 12.1853 4.87179 10.7692 4.87179M10.7692 4.87179V4.87179ZM10.7692 4.87179H9.07692C8.39683 4.87167 7.74455 5.14173 7.26359 5.62256L6.92308 5.96205M15.1282 19.2308H6.92308C3.5244 19.2308 0.769231 16.4756 0.769231 13.0769V6.92308C0.76923 3.5244 3.5244 0.769231 6.92308 0.769231H13.0769C16.4756 0.769231 19.2308 3.5244 19.2308 6.92308V12.0513C19.2308 13.7506 17.8532 15.1282 16.1538 15.1282C14.5961 15.1282 13.3333 13.8654 13.3333 12.3077V9.48718" stroke="#161A1D" stroke-width="1.5" stroke-linecap="round" stroke-linejoin="round"/>
</svg>
