<svg width="20" height="20" viewBox="0 0 20 20" fill="none" xmlns="http://www.w3.org/2000/svg">
<path d="M17.5 14.1663H14.1667M10.8333 14.1663H2.5M2.5 5.83301H5.83333M9.16667 5.83301H17.5M11.6667 11.6663H13.3333C13.7933 11.6663 14.1667 12.0397 14.1667 12.4997V15.833C14.1667 16.293 13.7933 16.6663 13.3333 16.6663H11.6667C11.2067 16.6663 10.8333 16.293 10.8333 15.833V12.4997C10.8333 12.0397 11.2067 11.6663 11.6667 11.6663ZM8.33333 8.33301H6.66667C6.20667 8.33301 5.83333 7.95967 5.83333 7.49967V4.16634C5.83333 3.70634 6.20667 3.33301 6.66667 3.33301H8.33333C8.79333 3.33301 9.16667 3.70634 9.16667 4.16634V7.49967C9.16667 7.95967 8.79333 8.33301 8.33333 8.33301Z" stroke="#161A1D" stroke-linecap="round" stroke-linejoin="round"/>
</svg>
