<svg width="24" height="24" viewBox="0 0 24 24" fill="none" xmlns="http://www.w3.org/2000/svg">
<path d="M16 20V19C16 17.9391 15.5786 16.9217 14.8284 16.1716C14.0783 15.4214 13.0609 15 12 15H6C4.93913 15 3.92172 15.4214 3.17157 16.1716C2.42143 16.9217 2 17.9391 2 19V20M22 20V19C22 17.9391 21.5786 16.9217 20.8284 16.1716C20.0783 15.4214 19.0609 15 18 15M15 3C16.0609 3 17.0783 3.42143 17.8284 4.17157C18.5786 4.92172 19 5.93913 19 7C19 8.06087 18.5786 9.07828 17.8284 9.82843C17.0783 10.5786 16.0609 11 15 11M13 7C13 9.20914 11.2091 11 9 11C6.79086 11 5 9.20914 5 7C5 4.79086 6.79086 3 9 3C11.2091 3 13 4.79086 13 7Z" stroke="#4A5763" stroke-width="1.5" stroke-linecap="round" stroke-linejoin="round"/>
</svg>
