<svg width="24" height="24" viewBox="0 0 24 24" fill="none" xmlns="http://www.w3.org/2000/svg">
<g id="Gift, Box 1">
<path id="Vector" d="M12 20.9995V7.9995M12.82 3.6195C11.605 4.8835 12.099 7.9995 12.099 7.9995C12.921 7.9995 14.618 7.7335 15.696 6.6115C16.49 5.7855 16.49 4.4455 15.696 3.6195C14.902 2.7935 13.615 2.7935 12.821 3.6195M11.18 3.6195C12.395 4.8835 11.901 7.9995 11.901 7.9995C11.079 7.9995 9.382 7.7335 8.304 6.6115C7.51 5.7855 7.51 4.4455 8.304 3.6195C9.098 2.7935 10.385 2.7935 11.179 3.6195M19 11.9995V19.9995C19 20.5515 18.552 20.9995 18 20.9995H6C5.448 20.9995 5 20.5515 5 19.9995V11.9995M20 7.9995H4C3.448 7.9995 3 8.4475 3 8.9995V10.9995C3 11.5515 3.448 11.9995 4 11.9995H20C20.552 11.9995 21 11.5515 21 10.9995V8.9995C21 8.4475 20.552 7.9995 20 7.9995Z" stroke="#161A1D" stroke-width="1.5" stroke-linecap="round" stroke-linejoin="round"/>
</g>
</svg>
