<svg width="20" height="20" viewBox="0 0 20 20" fill="none" xmlns="http://www.w3.org/2000/svg">
<path d="M8.33333 10L5.12167 14.8358M8.33333 10L13.6873 11.3933C13.9439 11.4601 14.1711 11.6101 14.3332 11.8199C14.4954 12.0296 14.5833 12.2873 14.5833 12.5524C14.5833 12.87 14.4572 13.1746 14.2326 13.3992C14.008 13.6238 13.7033 13.75 13.3857 13.75H11.6667V14.5833L13.5822 16.7383C13.7049 16.8764 13.7851 17.047 13.8131 17.2296C13.8412 17.4122 13.8158 17.5991 13.7401 17.7676C13.6644 17.9361 13.5417 18.0792 13.3866 18.1796C13.2315 18.2799 13.0506 18.3333 12.8659 18.3333H10.1253C9.52857 18.3333 8.95148 18.1198 8.49837 17.7315L2.5 12.59V16.0631C2.5 16.2518 2.53716 16.4387 2.60936 16.613C2.68157 16.7873 2.78741 16.9457 2.92083 17.0792C3.05425 17.2126 3.21265 17.3184 3.38698 17.3906C3.56131 17.4628 3.74815 17.5 3.93684 17.5H8.22833M8.33333 10L2.5 5V4.16667C2.5 3.72464 2.67559 3.30072 2.98816 2.98816C3.30072 2.67559 3.72464 2.5 4.16667 2.5H15.8333C16.2754 2.5 16.6993 2.67559 17.0118 2.98816C17.3244 3.30072 17.5 3.72464 17.5 4.16667V15.8333C17.5 16.2754 17.3244 16.6993 17.0118 17.0118C16.6993 17.3244 16.2754 17.5 15.8333 17.5H13.8261M7.5 2.5H12.5V4.16667C12.5 4.38768 12.4122 4.59964 12.2559 4.75592C12.0996 4.9122 11.8877 5 11.6667 5H8.33333C8.11232 5 7.90036 4.9122 7.74408 4.75592C7.5878 4.59964 7.5 4.38768 7.5 4.16667V2.5Z" stroke="#161A1D" stroke-linecap="round" stroke-linejoin="round"/>
</svg>
