<svg width="24" height="24" viewBox="0 0 24 24" fill="none" xmlns="http://www.w3.org/2000/svg">
<g id="hotel 1">
<path id="Vector" d="M13.5 10.5V13.5M16.5 10.5V13.5M13.5 12H16.5M14 7V4C14 3.73478 13.8946 3.48043 13.7071 3.29289C13.5196 3.10536 13.2652 3 13 3H5C4.73478 3 4.48043 3.10536 4.29289 3.29289C4.10536 3.48043 4 3.73478 4 4V21H14M22 21H2M4 9H6M4 12H6M4 15H6M11 7H19C19.2652 7 19.5196 7.10536 19.7071 7.29289C19.8946 7.48043 20 7.73478 20 8V21H10V8C10 7.73478 10.1054 7.48043 10.2929 7.29289C10.4804 7.10536 10.7348 7 11 7ZM13.5 17H16.5V21H13.5V17Z" stroke="#4A5763" stroke-width="1.5" stroke-linecap="round" stroke-linejoin="round"/>
</g>
</svg>
