<svg width="24" height="24" viewBox="0 0 24 24" fill="none" xmlns="http://www.w3.org/2000/svg">
<g id="hotel-building-tree 1">
<path id="Vector" d="M22 21H2M3 21V4C3 3.73478 3.10536 3.48043 3.29289 3.29289C3.48043 3.10536 3.73478 3 4 3H13C13.2652 3 13.5196 3.10536 13.7071 3.29289C13.8946 3.48043 14 3.73478 14 4V21M11 7H6M11 10H6M11 13H6M20 11V8C20 7.73478 19.8946 7.48043 19.7071 7.29289C19.5196 7.10536 19.2652 7 19 7H14M20 11C21.3807 11 22.5 12.1193 22.5 13.5V15.5C22.5 16.8807 21.3807 18 20 18C18.6193 18 17.5 16.8807 17.5 15.5V13.5C17.5 12.1193 18.6193 11 20 11ZM6.75 21V17M10.25 17V21M6 17H11M19.993 18V21" stroke="#4A5763" stroke-width="1.5" stroke-linecap="round" stroke-linejoin="round"/>
</g>
</svg>
