<svg width="24" height="24" viewBox="0 0 24 24" fill="none" xmlns="http://www.w3.org/2000/svg">
<g id="Active=Off">
<path id="Vector" d="M14.2143 9.71431H18.4988C18.8787 9.71431 19.2536 9.8009 19.5951 9.9675C19.9365 10.1341 20.2355 10.3763 20.4693 10.6758C20.7031 10.9752 20.8656 11.324 20.9444 11.6957C21.0232 12.0674 21.0163 12.4521 20.9241 12.8207L19.6162 18.0523C19.4771 18.6086 19.1561 19.1025 18.7041 19.4554C18.252 19.8083 17.695 20 17.1216 20H5.28571C4.94472 20 4.61769 19.8646 4.37658 19.6234C4.13546 19.3823 4 19.0553 4 18.7143V11C4 10.659 4.13546 10.332 4.37658 10.0909C4.61769 9.84977 4.94472 9.71431 5.28571 9.71431H8.5M8.5 9.71431V9.71166L10.1683 4.77716C10.2165 4.63463 10.2923 4.50302 10.3915 4.38987C10.4907 4.27673 10.6112 4.18428 10.7462 4.11784C10.8812 4.0514 11.028 4.01226 11.1782 4.00268C11.3283 3.99311 11.4789 4.01327 11.6212 4.06202L12.2829 4.28862C12.8464 4.48162 13.3355 4.84591 13.6818 5.33056C14.0281 5.8152 14.2143 6.39597 14.2143 6.99162V9.71166M8.5 9.71431V19.998" stroke="#161A1D" stroke-width="1.5" stroke-linecap="round" stroke-linejoin="round"/>
</g>
</svg>
