<svg width="24" height="24" viewBox="0 0 24 24" fill="none" xmlns="http://www.w3.org/2000/svg">
<g id="Active=On">
<g id="Subtract">
<path d="M18.4988 8.96444H14.9643V6.99174C14.9643 6.23973 14.7292 5.50651 14.292 4.89465C13.8548 4.28278 13.2373 3.82286 12.5259 3.5792L11.8642 3.3526C11.6285 3.27186 11.3791 3.23846 11.1304 3.25433C10.8817 3.27019 10.6386 3.33501 10.415 3.44506C10.1914 3.5551 9.99178 3.70822 9.82751 3.89561C9.66325 4.08301 9.53759 4.30101 9.45778 4.53708C8.98907 5.92343 8.75 7.37705 8.75 8.84049L8.75 20.7501H17.1216C17.8623 20.7501 18.5818 20.5025 19.1656 20.0467C19.7495 19.5908 20.1642 18.9529 20.3438 18.2343L21.6517 13.0027C21.7715 12.5235 21.7805 12.0234 21.6781 11.5402C21.5756 11.0571 21.3644 10.6036 21.0604 10.2143C20.7565 9.82506 20.3678 9.51016 19.9239 9.29358C19.4801 9.077 18.9927 8.96444 18.4988 8.96444Z" fill="#007AFF"/>
<path d="M7.25 20.7501L7.25 8.96444H5.28571C4.7458 8.96444 4.22801 9.17891 3.84625 9.56068C3.46448 9.94245 3.25 10.4602 3.25 11.0001V18.7144C3.25 19.2543 3.46448 19.7721 3.84625 20.1539C4.22802 20.5357 4.74581 20.7501 5.28571 20.7501H7.25Z" fill="#007AFF"/>
</g>
</g>
</svg>
