<svg width="42" height="28" viewBox="0 0 42 28" fill="none" xmlns="http://www.w3.org/2000/svg">
<g id="Payment method">
<path d="M0 4C0 1.79086 1.79086 0 4 0H38C40.2091 0 42 1.79086 42 4V24C42 26.2091 40.2091 28 38 28H4C1.79086 28 0 26.2091 0 24V4Z" fill="#000008"/>
<g id="Mastercard">
<path d="M24.7858 7.40665H17.2145V21.0125H24.7858V7.40665Z" fill="#FF5F00"/>
<path d="M17.6953 14.2096C17.6941 12.8992 17.991 11.6058 18.5636 10.4272C19.1362 9.24855 19.9694 8.21564 21.0002 7.40664C19.7237 6.4033 18.1907 5.77933 16.5764 5.60606C14.962 5.43279 13.3315 5.71721 11.8712 6.42681C10.4108 7.13641 9.17959 8.24257 8.31819 9.61884C7.4568 10.9951 7 12.586 7 14.2096C7 15.8332 7.4568 17.4241 8.31819 18.8003C9.17959 20.1766 10.4108 21.2828 11.8712 21.9924C13.3315 22.702 14.962 22.9864 16.5764 22.8131C18.1907 22.6398 19.7237 22.0159 21.0002 21.0125C19.9694 20.2035 19.1362 19.1706 18.5636 17.992C17.9911 16.8134 17.6941 15.5199 17.6953 14.2096Z" fill="#EB001B"/>
<path d="M35 14.2096C35.0001 15.8332 34.5433 17.424 33.682 18.8003C32.8206 20.1766 31.5894 21.2827 30.1291 21.9923C28.6688 22.7019 27.0383 22.9864 25.424 22.8131C23.8097 22.6398 22.2767 22.0159 21.0002 21.0125C22.0301 20.2027 22.8627 19.1696 23.4352 17.9912C24.0076 16.8128 24.3051 15.5197 24.3051 14.2096C24.3051 12.8994 24.0076 11.6064 23.4352 10.428C22.8627 9.24953 22.0301 8.21646 21.0002 7.40664C22.2767 6.40329 23.8097 5.77932 25.424 5.60606C27.0383 5.43279 28.6688 5.71722 30.1291 6.42683C31.5894 7.13644 32.8206 8.2426 33.682 9.61887C34.5433 10.9951 35.0001 12.586 35 14.2096Z" fill="#F79E1B"/>
<path d="M34.1745 19.5715V19.2929H34.2868V19.2362H34.0007V19.2929H34.1131V19.5715H34.1745ZM34.7298 19.5715V19.2356H34.6421L34.5413 19.4666L34.4404 19.2356H34.3527V19.5715H34.4146V19.3181L34.5092 19.5365H34.5734L34.6679 19.3176V19.5715H34.7298Z" fill="#F79E1B"/>
</g>
</g>
</svg>
