<svg width="24" height="24" viewBox="0 0 24 24" fill="none" xmlns="http://www.w3.org/2000/svg">
<path d="M9.007 14.5H15.007M10.5 10.3L11.7 11.5L13.7 9.5M19.449 20.396L18.459 20.8935C18.3206 20.963 18.168 20.9995 18.0132 21C17.8584 21.0005 17.7055 20.965 17.5667 20.8964L15.9942 20.1188L14.4533 20.8929C14.3146 20.9626 14.1615 20.999 14.0063 20.9993C13.851 20.9996 13.6978 20.9637 13.5588 20.8945L12 20.1185L10.4412 20.8945C10.3022 20.9637 10.149 20.9996 9.99377 20.9993C9.8385 20.999 9.68543 20.9626 9.54668 20.8929L8.00578 20.1188L6.4333 20.8964C6.2945 20.965 6.14166 21.0005 5.98682 21C5.83198 20.9995 5.67937 20.963 5.54102 20.8935L4.55102 20.396C4.38538 20.3128 4.24614 20.1851 4.14884 20.0274C4.05153 19.8696 4 19.6879 4 19.5025V4.49752C4 4.31215 4.05153 4.13043 4.14883 3.97264C4.24613 3.81486 4.38537 3.68723 4.551 3.604L5.541 3.10648C5.67935 3.03695 5.83196 3.0005 5.9868 3.00001C6.14164 2.99951 6.29448 3.03497 6.43328 3.10361L8.00576 3.8812L9.54666 3.10713C9.68541 3.03743 9.83848 3.00099 9.99375 3.00071C10.149 3.00043 10.3022 3.03631 10.4412 3.10551L12 3.88151L13.5588 3.10551C13.6978 3.03631 13.851 3.00043 14.0062 3.00071C14.1615 3.00099 14.3146 3.03743 14.4533 3.10713L15.9942 3.8812L17.5667 3.10361C17.7055 3.03497 17.8583 2.99951 18.0132 3.00001C18.168 3.0005 18.3206 3.03695 18.459 3.10648L19.449 3.604C19.6146 3.68723 19.7539 3.81486 19.8512 3.97264C19.9485 4.13042 20 4.31214 20 4.49752V19.5025C20 19.6879 19.9485 19.8696 19.8512 20.0274C19.7539 20.1851 19.6146 20.3128 19.449 20.396Z" stroke="#161A1D" stroke-width="1.5" stroke-linecap="round" stroke-linejoin="round"/>
</svg>
