<svg width="19" height="19" viewBox="0 0 19 19" fill="none" xmlns="http://www.w3.org/2000/svg">
<path d="M8.29577 10.7042C7.06428 9.47276 6.13592 8.0939 5.51912 6.69506C5.38861 6.39929 5.46544 6.053 5.69385 5.82459L6.55589 4.9636C7.26216 4.25733 7.26216 3.25846 6.64536 2.64166L5.40966 1.40595C4.58761 0.583906 3.25507 0.583906 2.43302 1.40595L1.74676 2.09222C0.966812 2.87217 0.641572 3.99735 0.852084 5.11306C1.37205 7.86339 2.96983 10.8748 5.54754 13.4525C8.12526 16.0302 11.1366 17.628 13.887 18.1479C15.0027 18.3584 16.1279 18.0332 16.9078 17.2533L17.593 16.568C18.4151 15.746 18.4151 14.4135 17.593 13.5914L16.3584 12.3568C15.7416 11.74 14.7416 11.74 14.1259 12.3568L13.1754 13.3083C12.947 13.5367 12.6007 13.6135 12.305 13.483C10.9061 12.8651 9.52726 11.9357 8.29577 10.7042Z" stroke="#161A1D" stroke-width="1.5" stroke-linecap="round" stroke-linejoin="round"/>
</svg>
