<svg width="24" height="24" viewBox="0 0 24 24" fill="none" xmlns="http://www.w3.org/2000/svg">
<path d="M9 18H3.75M6.38 12.5H2M9 7.00003H3.75M16.364 5.63603V10.306H20.349C20.6991 10.298 20.9893 10.5753 20.9973 10.9254C21.0003 11.0561 20.9628 11.1845 20.89 11.293L15.824 18.716C15.6207 19.0133 15.215 19.0895 14.9178 18.8862C14.7447 18.7679 14.6392 18.5736 14.634 18.364V13.691H10.651C10.3009 13.699 10.0107 13.4217 10.0027 13.0717C9.99971 12.941 10.0372 12.8126 10.11 12.704L15.174 5.28403C15.3773 4.98679 15.783 4.91061 16.0802 5.11386C16.2533 5.23218 16.3588 5.42648 16.364 5.63603Z" stroke="#4A5763" stroke-width="1.5" stroke-linecap="round" stroke-linejoin="round"/>
</svg>
