<svg width="72" height="72" viewBox="0 0 72 72" fill="none" xmlns="http://www.w3.org/2000/svg">
<path d="M30 36L18.438 53.409M30 36L49.2745 41.016C50.1981 41.2564 51.0159 41.7965 51.5996 42.5516C52.1834 43.3067 52.5 44.2342 52.5 45.1886C52.5 46.332 52.0458 47.4287 51.2372 48.2372C50.4287 49.0458 49.332 49.5 48.1886 49.5H42V52.5L48.8958 60.258C49.3377 60.7551 49.6264 61.3693 49.7273 62.0267C49.8282 62.6841 49.7369 63.3566 49.4644 63.9633C49.192 64.57 48.75 65.0851 48.1916 65.4464C47.6332 65.8078 46.9823 66 46.3172 66H36.4513C34.3029 66 32.2253 65.2314 30.5941 63.8332L9 45.324V57.8273C8.99998 58.5066 9.13377 59.1792 9.39371 59.8068C9.65365 60.4344 10.0347 61.0046 10.515 61.485C10.9953 61.9653 11.5655 62.3463 12.1931 62.6063C12.8207 62.8662 13.4933 63 14.1726 63H29.622M30 36L9 18V15C9 13.4087 9.63214 11.8826 10.7574 10.7574C11.8826 9.63214 13.4087 9 15 9H57C58.5913 9 60.1174 9.63214 61.2426 10.7574C62.3679 11.8826 63 13.4087 63 15V57C63 58.5913 62.3679 60.1174 61.2426 61.2426C60.1174 62.3679 58.5913 63 57 63H49.774M27 9H45V15C45 15.7956 44.6839 16.5587 44.1213 17.1213C43.5587 17.6839 42.7956 18 42 18H30C29.2044 18 28.4413 17.6839 27.8787 17.1213C27.3161 16.5587 27 15.7956 27 15V9Z" stroke="#161A1D" stroke-width="4.5" stroke-linecap="round" stroke-linejoin="round"/>
</svg>
