<svg width="24" height="24" viewBox="0 0 24 24" fill="none" xmlns="http://www.w3.org/2000/svg">
<path d="M15.0052 3.9948C13.3455 2.33507 10.6546 2.33507 8.99482 3.9948C7.33509 5.65453 7.33509 8.34548 8.99482 10.0052C10.6546 11.6649 13.3455 11.6649 15.0052 10.0052C16.665 8.34548 16.665 5.65453 15.0052 3.9948Z" fill="#007AFF"/>
<path d="M12 12.758C9.86712 12.758 7.7321 13.2737 6.10466 14.2211C4.48397 15.1646 3.25 16.6183 3.25 18.5V19.5C3.25 20.4662 4.03379 21.25 5 21.25H19C19.9662 21.25 20.75 20.4662 20.75 19.5V18.5C20.75 16.6183 19.516 15.1646 17.8953 14.2211C16.2679 13.2737 14.1329 12.758 12 12.758Z" fill="#007AFF"/>
</svg>
