<svg width="24" height="24" viewBox="0 0 24 24" fill="none" xmlns="http://www.w3.org/2000/svg">
<g id="reception-hotel 1">
<path id="Vector" d="M12 13V9.5M21 13V21H3V13M22 13H2M17 13V12.3571C17 11.5994 16.699 10.8727 16.1632 10.3368C15.6273 9.80102 14.9006 9.5 14.1429 9.5H9.85714C9.09938 9.5 8.37266 9.80102 7.83684 10.3368C7.30102 10.8727 7 11.5994 7 12.3571V13M14.5 4.5C14.5 5.88071 13.3807 7 12 7C10.6193 7 9.5 5.88071 9.5 4.5C9.5 3.11929 10.6193 2 12 2C13.3807 2 14.5 3.11929 14.5 4.5Z" stroke="#21262C" stroke-width="1.5" stroke-linecap="round" stroke-linejoin="round"/>
</g>
</svg>
