<svg width="44" height="44" viewBox="0 0 44 44" fill="none" xmlns="http://www.w3.org/2000/svg">
<path d="M7.33268 21.9997H36.666M7.33268 21.9997C6.36022 21.9997 5.42759 22.386 4.73996 23.0736C4.05232 23.7612 3.66602 24.6939 3.66602 25.6663V32.9997C3.66602 33.4859 3.85917 33.9522 4.20299 34.296C4.5468 34.6399 5.01312 34.833 5.49935 34.833M7.33268 21.9997V12.833C7.33268 11.3743 7.91214 9.97537 8.94359 8.94392C9.97504 7.91247 11.374 7.33301 12.8327 7.33301H31.166C32.6247 7.33301 34.0237 7.91247 35.0551 8.94392C36.0866 9.97537 36.666 11.3743 36.666 12.833V21.9997M36.666 21.9997C37.6385 21.9997 38.5711 22.386 39.2587 23.0736C39.9464 23.7612 40.3327 24.6939 40.3327 25.6663V32.9997C40.3327 33.4859 40.1395 33.9522 39.7957 34.296C39.4519 34.6399 38.9856 34.833 38.4993 34.833M38.4993 34.833H5.49935M38.4993 34.833V38.4997M5.49935 34.833V38.4997M15.5827 14.6663H28.416C29.9348 14.6663 31.166 15.8976 31.166 17.4163V19.2497C31.166 20.7685 29.9348 21.9997 28.416 21.9997H15.5827C14.0639 21.9997 12.8327 20.7685 12.8327 19.2497V17.4163C12.8327 15.8976 14.0639 14.6663 15.5827 14.6663Z" stroke="#161A1D" stroke-width="2.5" stroke-linecap="round" stroke-linejoin="round"/>
</svg>
