<svg width="24" height="24" viewBox="0 0 24 24" fill="none" xmlns="http://www.w3.org/2000/svg">
<g id="search-big-left 1">
<path id="Vector" d="M20 20L16.3763 16.3763M16.3763 16.3763C15.3624 17.3902 14.0708 18.081 12.6644 18.3607C11.258 18.6404 9.80031 18.4969 8.47554 17.9481C7.15078 17.3994 6.01849 16.4701 5.22185 15.2779C4.4252 14.0856 4 12.6839 4 11.25C4.00014 9.32722 4.76402 7.48324 6.12363 6.12363C7.48324 4.76402 9.32722 4.00014 11.25 4C12.6839 4 14.0856 4.4252 15.2779 5.22185C16.4701 6.01849 17.3994 7.15078 17.9481 8.47554C18.4969 9.80031 18.6404 11.258 18.3607 12.6644C18.081 14.0708 17.3902 15.3624 16.3763 16.3763Z" stroke="#798A9A" stroke-width="1.5" stroke-linecap="round" stroke-linejoin="round"/>
</g>
</svg>
