<svg width="24" height="24" viewBox="0 0 24 24" fill="none" xmlns="http://www.w3.org/2000/svg">
<path d="M20 21V11.949M4 21V11.949M22 21H2M15 18H9M12 9.5C12 10.163 11.7366 10.7989 11.2678 11.2678C10.7989 11.7366 10.163 12 9.5 12C8.83696 12 8.20107 11.7366 7.73223 11.2678C7.26339 10.7989 7 10.163 7 9.5M12 9.5C12 10.163 12.2634 10.7989 12.7322 11.2678C13.2011 11.7366 13.837 12 14.5 12C15.163 12 15.7989 11.7366 16.2678 11.2678C16.7366 10.7989 17 10.163 17 9.5M12 9.5V9M7 9.5C7 10.163 6.73661 10.7989 6.26777 11.2678C5.79893 11.7366 5.16304 12 4.5 12C3.83696 12 3.20107 11.7366 2.73223 11.2678C2.26339 10.7989 2 10.163 2 9.5V8.33091C2.00001 8.18546 2.03175 8.04177 2.093 7.90985L3.83473 4.15785C3.99528 3.81201 4.25134 3.51928 4.57274 3.31414C4.89414 3.109 5.26747 3 5.64876 3H18.3512C18.7325 3 19.1059 3.10899 19.4273 3.31414C19.7487 3.51928 20.0048 3.81203 20.1653 4.15787L21.907 7.90976C21.9683 8.04168 22 8.18538 22 8.33083V9.5C22 10.163 21.7366 10.7989 21.2678 11.2678C20.7989 11.7366 20.163 12 19.5 12C18.837 12 18.2011 11.7366 17.7322 11.2678C17.2634 10.7989 17 10.163 17 9.5M7 9.5V9M17 9.5V9" stroke="#161A1D" stroke-width="1.5" stroke-linecap="round" stroke-linejoin="round"/>
</svg>
