<svg width="24" height="24" viewBox="0 0 24 24" fill="none" xmlns="http://www.w3.org/2000/svg">
<path d="M18.5 3H16C14.6193 3 13.5 4.11929 13.5 5.5V8C13.5 9.38071 14.6193 10.5 16 10.5H18.5C19.8807 10.5 21 9.38071 21 8V5.5C21 4.11929 19.8807 3 18.5 3Z" fill="#5856D7"/>
<path d="M8 3H5.5C4.11929 3 3 4.11929 3 5.5V8C3 9.38071 4.11929 10.5 5.5 10.5H8C9.38071 10.5 10.5 9.38071 10.5 8V5.5C10.5 4.11929 9.38071 3 8 3Z" fill="#5856D7"/>
<path d="M8 13.5H5.5C4.11929 13.5 3 14.6193 3 16V18.5C3 19.8807 4.11929 21 5.5 21H8C9.38071 21 10.5 19.8807 10.5 18.5V16C10.5 14.6193 9.38071 13.5 8 13.5Z" fill="#5856D7"/>
<path d="M17.25 21C16.2554 21 15.3016 20.6049 14.5983 19.9017C13.8951 19.1984 13.5 18.2446 13.5 17.25C13.5 16.2554 13.8951 15.3016 14.5983 14.5983C15.3016 13.8951 16.2554 13.5 17.25 13.5C18.2446 13.5 19.1984 13.8951 19.9017 14.5983C20.6049 15.3016 21 16.2554 21 17.25C21 18.2446 20.6049 19.1984 19.9017 19.9017C19.1984 20.6049 18.2446 21 17.25 21Z" fill="#5856D7"/>
<path d="M18.5 3H16C14.6193 3 13.5 4.11929 13.5 5.5V8C13.5 9.38071 14.6193 10.5 16 10.5H18.5C19.8807 10.5 21 9.38071 21 8V5.5C21 4.11929 19.8807 3 18.5 3Z" stroke="#5856D7" stroke-width="1.5" stroke-linecap="round" stroke-linejoin="round"/>
<path d="M8 3H5.5C4.11929 3 3 4.11929 3 5.5V8C3 9.38071 4.11929 10.5 5.5 10.5H8C9.38071 10.5 10.5 9.38071 10.5 8V5.5C10.5 4.11929 9.38071 3 8 3Z" stroke="#5856D7" stroke-width="1.5" stroke-linecap="round" stroke-linejoin="round"/>
<path d="M8 13.5H5.5C4.11929 13.5 3 14.6193 3 16V18.5C3 19.8807 4.11929 21 5.5 21H8C9.38071 21 10.5 19.8807 10.5 18.5V16C10.5 14.6193 9.38071 13.5 8 13.5Z" stroke="#5856D7" stroke-width="1.5" stroke-linecap="round" stroke-linejoin="round"/>
<path d="M17.25 21C16.2554 21 15.3016 20.6049 14.5983 19.9017C13.8951 19.1984 13.5 18.2446 13.5 17.25C13.5 16.2554 13.8951 15.3016 14.5983 14.5983C15.3016 13.8951 16.2554 13.5 17.25 13.5C18.2446 13.5 19.1984 13.8951 19.9017 14.5983C20.6049 15.3016 21 16.2554 21 17.25C21 18.2446 20.6049 19.1984 19.9017 19.9017C19.1984 20.6049 18.2446 21 17.25 21Z" stroke="#5856D7" stroke-width="1.5" stroke-linecap="round" stroke-linejoin="round"/>
</svg>
