<svg width="44" height="44" viewBox="0 0 44 44" fill="none" xmlns="http://www.w3.org/2000/svg">
<path d="M3.66797 28.4171H40.331M3.66797 21.0876V29.3376C3.66797 30.31 4.05428 31.2427 4.74191 31.9303C5.42954 32.6179 6.36217 33.0042 7.33464 33.0042H36.668C37.6404 33.0042 38.5731 32.6179 39.2607 31.9303C39.9483 31.2427 40.3346 30.31 40.3346 29.3376V28.5546C40.3346 27.8639 40.1738 27.1826 39.8649 26.5647L39.4441 25.7231C39.1484 25.1317 38.7283 24.6113 38.2125 24.1976C37.6968 23.7839 37.0976 23.4867 36.4562 23.3263L31.9444 22.1983C31.4328 22.0704 30.9549 21.8337 30.5431 21.5043L22.5035 15.0726C22.1784 14.8126 21.7745 14.6709 21.3582 14.6709H19.4677C19.1273 14.6709 18.7935 14.7657 18.5039 14.9447C18.2143 15.1237 17.9802 15.3798 17.828 15.6843L16.0914 19.1575C15.9391 19.462 15.7051 19.7181 15.4155 19.8971C15.1258 20.0761 14.7921 20.1709 14.4516 20.1709H10.0846C9.80002 20.1709 9.51931 20.1046 9.26474 19.9773C9.01018 19.8501 8.78874 19.6653 8.61797 19.4376C8.27166 18.9758 7.78885 18.6347 7.23793 18.4627C6.68701 18.2906 6.0959 18.2962 5.54834 18.4787C5.00078 18.6612 4.52453 19.0114 4.18705 19.4796C3.84957 19.9478 3.66797 20.5104 3.66797 21.0876Z" stroke="#161A1D" stroke-width="2.5" stroke-linecap="round" stroke-linejoin="round"/>
</svg>
