<svg width="24" height="24" viewBox="0 0 24 24" fill="none" xmlns="http://www.w3.org/2000/svg">
<path d="M17.901 4.9987C18.107 5.4967 18.502 5.8917 19.001 6.0987L20.745 6.8217C21.243 7.02809 21.6387 7.42384 21.845 7.92192C22.0513 8.42 22.0513 8.97962 21.845 9.4777L21.123 11.2217C21.0207 11.4683 20.968 11.7327 20.968 11.9997C20.968 12.2667 21.0207 12.5311 21.123 12.7777L21.845 14.5217C22.0513 15.0198 22.0513 15.5794 21.845 16.0775C21.6387 16.5756 21.243 16.9713 20.745 17.1777L19 17.9007C18.5022 18.1068 18.1065 18.5021 17.9 18.9997L17.177 20.7447C17.0749 20.9914 16.9252 21.2155 16.7365 21.4044C16.5477 21.5932 16.3236 21.7429 16.0769 21.8451C15.8303 21.9472 15.5659 21.9998 15.2989 21.9997C15.032 21.9997 14.7676 21.947 14.521 21.8447L12.777 21.1227C12.2792 20.9165 11.7198 20.9165 11.222 21.1227L9.477 21.8457C8.97915 22.0514 8.42003 22.051 7.92242 21.8448C7.42482 21.6385 7.0294 21.2432 6.823 20.7457L6.1 19.0007C5.99794 18.7539 5.84827 18.5297 5.65952 18.3408C5.47078 18.1519 5.24667 18.002 5 17.8997L3.256 17.1767C2.75846 16.9703 2.36316 16.5749 2.15692 16.0773C1.95068 15.5797 1.95035 15.0206 2.156 14.5227L2.877 12.7787C2.97917 12.532 3.03175 12.2677 3.03175 12.0007C3.03175 11.7337 2.97917 11.4694 2.877 11.2227L2.155 9.4767C2.0527 9.23002 2.00002 8.9656 1.99994 8.69856C1.99986 8.43151 2.0524 8.16706 2.15455 7.92032C2.2567 7.67358 2.40646 7.44938 2.59528 7.26054C2.7841 7.07169 3.00827 6.92189 3.255 6.8197L5 6.0977C5.498 5.8917 5.893 5.4977 6.1 4.9997L6.823 3.2547C7.02938 2.75667 7.42514 2.361 7.92321 2.15472C8.42129 1.94843 8.98091 1.94843 9.479 2.1547L11.223 2.8767C11.721 3.08245 12.2803 3.08209 12.778 2.8757L14.524 2.1557C14.7706 2.05358 15.0348 2.00103 15.3017 2.00105C15.5685 2.00106 15.8328 2.05364 16.0793 2.15579C16.3259 2.25794 16.5499 2.40765 16.7386 2.59637C16.9272 2.78509 17.0769 3.00914 17.179 3.2557L17.902 5.0017V4.9987H17.901Z" fill="#5856D7" stroke="#5856D7" stroke-width="1.5" stroke-linecap="round" stroke-linejoin="round"/>
<path d="M9 12L11 14L15.5 9.5" stroke="white" stroke-width="1.5" stroke-linecap="round" stroke-linejoin="round"/>
</svg>
