<svg width="42" height="28" viewBox="0 0 42 28" fill="none" xmlns="http://www.w3.org/2000/svg">
<g id="Payment method">
<path d="M0 4C0 1.79086 1.79086 0 4 0H38C40.2091 0 42 1.79086 42 4V24C42 26.2091 40.2091 28 38 28H4C1.79086 28 0 26.2091 0 24V4Z" fill="#1434CB"/>
<path id="Visa" d="M20.8528 9.31823L18.8259 18.7064H16.3749L18.4021 9.31823H20.8528ZM31.1649 15.3802L32.4553 11.8546L33.1978 15.3802H31.1649ZM33.8996 18.7064H36.1667L34.1884 9.31823H32.0958C31.6256 9.31823 31.2288 9.58922 31.0522 10.007L27.375 18.7064H29.9489L30.4599 17.3045H33.6045L33.8996 18.7064ZM27.5027 15.6411C27.5132 13.1632 24.0445 13.0268 24.0685 11.92C24.0757 11.5827 24.3998 11.225 25.1079 11.1332C25.4596 11.0877 26.4268 11.0529 27.5249 11.5536L27.955 9.56278C27.3651 9.35062 26.6061 9.14648 25.662 9.14648C23.2396 9.14648 21.5344 10.4227 21.52 12.2501C21.5047 13.6015 22.7373 14.3556 23.666 14.8049C24.6208 15.2652 24.9417 15.56 24.9375 15.9715C24.9312 16.6017 24.1758 16.8793 23.4711 16.8902C22.2386 16.9096 21.5233 16.5607 20.9533 16.2975L20.5091 18.3546C21.0816 18.6151 22.1387 18.8416 23.2354 18.8532C25.8099 18.8532 27.4943 17.5927 27.5027 15.6411ZM17.3504 9.31823L13.3794 18.7064H10.7881L8.83402 11.214C8.71527 10.7525 8.61211 10.5837 8.25134 10.3891C7.66267 10.0727 6.68954 9.77523 5.83337 9.59101L5.89185 9.31823H10.0623C10.5937 9.31823 11.0721 9.66886 11.1926 10.2753L12.2248 15.7082L14.7753 9.31823H17.3504Z" fill="white"/>
</g>
</svg>
