<svg width="20" height="20" viewBox="0 0 20 19" fill="none" xmlns="http://www.w3.org/2000/svg">
<path fill-rule="evenodd" clip-rule="evenodd" d="M1.2019 1.2019C1.8114 0.59241 2.63805 0.25 3.5 0.25H13C13.4142 0.25 13.75 0.585786 13.75 1C13.75 1.41421 13.4142 1.75 13 1.75H3.5C3.03587 1.75 2.59075 1.93437 2.26256 2.26256C1.99388 2.53125 1.82159 2.8783 1.76794 3.25H17C17.7293 3.25 18.4288 3.53973 18.9445 4.05546C19.4603 4.57118 19.75 5.27065 19.75 6V15.5C19.75 16.362 19.4076 17.1886 18.7981 17.7981C18.1886 18.4076 17.362 18.75 16.5 18.75H3.5C2.63805 18.75 1.8114 18.4076 1.2019 17.7981C0.59241 17.1886 0.25 16.362 0.25 15.5V3.5C0.25 2.63805 0.59241 1.8114 1.2019 1.2019ZM13 10.25C12.5858 10.25 12.25 10.5858 12.25 11C12.25 11.4142 12.5858 11.75 13 11.75H15C15.4142 11.75 15.75 11.4142 15.75 11C15.75 10.5858 15.4142 10.25 15 10.25H13Z" fill="#007AFF"/>
</svg>
