<svg width="24" height="24" viewBox="0 0 24 24" fill="none" xmlns="http://www.w3.org/2000/svg">
<path fill-rule="evenodd" clip-rule="evenodd" d="M3.2019 4.2019C3.8114 3.59241 4.63805 3.25 5.5 3.25H15C15.4142 3.25 15.75 3.58579 15.75 4C15.75 4.41421 15.4142 4.75 15 4.75H5.5C5.03587 4.75 4.59075 4.93437 4.26256 5.26256C3.99388 5.53125 3.82159 5.8783 3.76794 6.25H19C19.7293 6.25 20.4288 6.53973 20.9445 7.05546C21.4603 7.57118 21.75 8.27065 21.75 9V18.5C21.75 19.362 21.4076 20.1886 20.7981 20.7981C20.1886 21.4076 19.362 21.75 18.5 21.75H5.5C4.63805 21.75 3.8114 21.4076 3.2019 20.7981C2.59241 20.1886 2.25 19.362 2.25 18.5V6.5C2.25 5.63805 2.59241 4.8114 3.2019 4.2019ZM15 13.25C14.5858 13.25 14.25 13.5858 14.25 14C14.25 14.4142 14.5858 14.75 15 14.75H17C17.4142 14.75 17.75 14.4142 17.75 14C17.75 13.5858 17.4142 13.25 17 13.25H15Z" fill="#5856D7"/>
</svg>
